<svg width="44" height="46" viewBox="0 0 44 46" fill="none" xmlns="http://www.w3.org/2000/svg">
<rect x="0.5" y="5.5" width="38" height="39.4774" rx="19" fill="white"/>
<rect x="0.5" y="5.5" width="38" height="39.4774" rx="19" stroke="#C7C7C7"/>
<path d="M20.7803 31.9001C20.6502 32.1244 20.4635 32.3105 20.2388 32.4399C20.0141 32.5694 19.7594 32.6375 19.5001 32.6375C19.2408 32.6375 18.9861 32.5694 18.7614 32.4399C18.5367 32.3105 18.35 32.1244 18.2199 31.9001M23.9401 22.5761C23.9401 21.3203 23.4724 20.1156 22.6399 19.2276C21.8074 18.3396 20.6767 17.8401 19.5001 17.8401C18.3235 17.8401 17.1935 18.3388 16.3603 19.2276C15.5278 20.1156 15.0601 21.3203 15.0601 22.5761C15.0601 28.1017 12.8401 29.6801 12.8401 29.6801H26.1601C26.1601 29.6801 23.9401 28.1017 23.9401 22.5761Z" stroke="#757575" stroke-width="1.11" stroke-linecap="round" stroke-linejoin="round"/>
<rect x="26.5" y="0.5" width="17" height="17" rx="8.5" fill="#DD3737"/>
<rect x="26.5" y="0.5" width="17" height="17" rx="8.5" stroke="#C7C7C7"/>
<path d="M35.9716 4.27273V13H34.9148V5.38068H34.8636L32.733 6.79545V5.72159L34.9148 4.27273H35.9716Z" fill="white"/>
</svg>
