<svg width="16" height="15" viewBox="0 0 16 15" fill="none" xmlns="http://www.w3.org/2000/svg">
<path d="M5.99992 6.16668C5.82311 6.16668 5.65354 6.23692 5.52852 6.36194C5.40349 6.48697 5.33326 6.65654 5.33326 6.83335V9.50001H6.66659V7.50001H8.66659V9.16668L10.9999 6.83335L8.66659 4.50001V6.16668H5.99992ZM8.47126 0.428681L15.0713 7.02868C15.1962 7.1537 15.2664 7.32324 15.2664 7.50001C15.2664 7.67679 15.1962 7.84633 15.0713 7.97135L8.47126 14.5713C8.34624 14.6963 8.1767 14.7665 7.99992 14.7665C7.82315 14.7665 7.65361 14.6963 7.52859 14.5713L0.928589 7.97135C0.803609 7.84633 0.733398 7.67679 0.733398 7.50001C0.733398 7.32324 0.803609 7.1537 0.928589 7.02868L7.52859 0.428681C7.65361 0.3037 7.82315 0.23349 7.99992 0.23349C8.1767 0.23349 8.34624 0.3037 8.47126 0.428681Z" fill="#037847"/>
</svg>
