<svg width="20" height="13" viewBox="0 0 20 13" fill="none" xmlns="http://www.w3.org/2000/svg">
<path d="M0.487031 1.21127C0.768323 0.930068 1.14978 0.772095 1.54753 0.772095C1.94528 0.772095 2.32674 0.930068 2.60803 1.21127L10.033 8.63627L17.458 1.21127C17.7409 0.938038 18.1198 0.786845 18.5131 0.790263C18.9064 0.793681 19.2826 0.951434 19.5608 1.22955C19.8389 1.50766 19.9966 1.88388 20 2.27717C20.0035 2.67047 19.8523 3.04937 19.579 3.33227L11.0935 11.8178C10.8122 12.099 10.4308 12.257 10.033 12.257C9.63529 12.257 9.25382 12.099 8.97253 11.8178L0.487031 3.33227C0.205825 3.05098 0.0478516 2.66952 0.0478516 2.27177C0.0478516 1.87403 0.205825 1.49257 0.487031 1.21127Z" fill="#B3B3B3"/>
</svg>
