<svg width="24" height="25" viewBox="0 0 24 25" fill="none" xmlns="http://www.w3.org/2000/svg">
<path d="M23.7666 10.1644H22.8V10.1146H12V14.9146H18.7818C17.7924 17.7088 15.1338 19.7146 12 19.7146C8.0238 19.7146 4.8 16.4908 4.8 12.5146C4.8 8.53845 8.0238 5.31465 12 5.31465C13.8354 5.31465 15.5052 6.00705 16.7766 7.13805L20.1708 3.74385C18.0276 1.74645 15.1608 0.514648 12 0.514648C5.373 0.514648 0 5.88765 0 12.5146C0 19.1416 5.373 24.5146 12 24.5146C18.627 24.5146 24 19.1416 24 12.5146C24 11.71 23.9172 10.9246 23.7666 10.1644Z" fill="#FFC107"/>
<path d="M1.38281 6.92925L5.32541 9.82065C6.39221 7.17945 8.97581 5.31465 11.9992 5.31465C13.8346 5.31465 15.5044 6.00705 16.7758 7.13805L20.17 3.74385C18.0268 1.74645 15.16 0.514648 11.9992 0.514648C7.39001 0.514648 3.39281 3.11685 1.38281 6.92925Z" fill="#FF3D00"/>
<path d="M11.9994 24.5139C15.099 24.5139 17.9154 23.3277 20.0448 21.3987L16.3308 18.2559C15.0855 19.2029 13.5639 19.7151 11.9994 19.7139C8.87821 19.7139 6.22801 17.7237 5.22961 14.9463L1.31641 17.9613C3.30241 21.8475 7.33561 24.5139 11.9994 24.5139Z" fill="#4CAF50"/>
<path d="M23.7666 10.1641H22.8V10.1143H12V14.9143H18.7818C18.3085 16.2441 17.456 17.4062 16.3296 18.2569L16.3314 18.2557L20.0454 21.3985C19.7826 21.6373 24 18.5143 24 12.5143C24 11.7097 23.9172 10.9243 23.7666 10.1641Z" fill="#1976D2"/>
</svg>
