<svg width="28" height="29" viewBox="0 0 28 29" fill="none" xmlns="http://www.w3.org/2000/svg">
<path d="M12 16.8931H4C3.448 16.8931 3 16.4451 3 15.8931L3 3.89307C3 3.34107 3.448 2.89307 4 2.89307L12 2.89307C12.552 2.89307 13 3.34107 13 3.89307L13 15.8931C13 16.4451 12.552 16.8931 12 16.8931Z" fill="#4461F2"/>
<path d="M12 26.8931H4C3.448 26.8931 3 26.4451 3 25.8931L3 19.8931C3 19.3411 3.448 18.8931 4 18.8931L12 18.8931C12.552 18.8931 13 19.3411 13 19.8931L13 25.8931C13 26.4451 12.552 26.8931 12 26.8931Z" fill="#4461F2"/>
<path d="M24 10.8931L16 10.8931C15.448 10.8931 15 10.4451 15 9.89307L15 3.89307C15 3.34107 15.448 2.89307 16 2.89307L24 2.89307C24.552 2.89307 25 3.34107 25 3.89307V9.89307C25 10.4451 24.552 10.8931 24 10.8931Z" fill="#4461F2"/>
<path d="M24 26.8931H16C15.448 26.8931 15 26.4451 15 25.8931L15 13.8931C15 13.3411 15.448 12.8931 16 12.8931L24 12.8931C24.552 12.8931 25 13.3411 25 13.8931L25 25.8931C25 26.4451 24.552 26.8931 24 26.8931Z" fill="#4461F2"/>
</svg>
