<svg width="24" height="25" viewBox="0 0 24 25" fill="none" xmlns="http://www.w3.org/2000/svg">
<path d="M18.375 0.514648H5.625C2.5184 0.514648 0 3.03305 0 6.13965V18.8896C0 21.9963 2.5184 24.5146 5.625 24.5146H18.375C21.4816 24.5146 24 21.9963 24 18.8896V6.13965C24 3.03305 21.4816 0.514648 18.375 0.514648Z" fill="url(#paint0_radial_1_16033)"/>
<path d="M18.375 0.514648H5.625C2.5184 0.514648 0 3.03305 0 6.13965V18.8896C0 21.9963 2.5184 24.5146 5.625 24.5146H18.375C21.4816 24.5146 24 21.9963 24 18.8896V6.13965C24 3.03305 21.4816 0.514648 18.375 0.514648Z" fill="url(#paint1_radial_1_16033)"/>
<path d="M12.0008 3.13965C9.45478 3.13965 9.13519 3.1508 8.13525 3.19627C7.13719 3.24202 6.45591 3.39999 5.85984 3.63184C5.24316 3.87127 4.72013 4.19162 4.19906 4.71287C3.67753 5.23402 3.35719 5.75705 3.117 6.37346C2.8845 6.96971 2.72634 7.65127 2.68144 8.64887C2.63672 9.6489 2.625 9.96859 2.625 12.5147C2.625 15.0609 2.63625 15.3795 2.68163 16.3794C2.72756 17.3775 2.88553 18.0587 3.11719 18.6548C3.35681 19.2715 3.67716 19.7945 4.19841 20.3156C4.71938 20.8371 5.24241 21.1582 5.85862 21.3976C6.45516 21.6295 7.13653 21.7875 8.13441 21.8332C9.13444 21.8787 9.45375 21.8898 11.9997 21.8898C14.5461 21.8898 14.8646 21.8787 15.8646 21.8332C16.8626 21.7875 17.5447 21.6295 18.1412 21.3976C18.7576 21.1582 19.2799 20.8371 19.8007 20.3156C20.3223 19.7945 20.6425 19.2715 20.8828 18.6551C21.1133 18.0587 21.2715 17.3773 21.3184 16.3796C21.3633 15.3796 21.375 15.0609 21.375 12.5147C21.375 9.96859 21.3633 9.64909 21.3184 8.64905C21.2715 7.65099 21.1133 6.9698 20.8828 6.37374C20.6425 5.75705 20.3223 5.23402 19.8007 4.71287C19.2793 4.19143 18.7578 3.87109 18.1406 3.63193C17.543 3.39999 16.8613 3.24193 15.8632 3.19627C14.8632 3.1508 14.5448 3.13965 11.9979 3.13965H12.0008ZM11.1598 4.82912C11.4095 4.82874 11.688 4.82912 12.0008 4.82912C14.5041 4.82912 14.8007 4.83812 15.7892 4.88302C16.7032 4.92484 17.1994 5.07755 17.5298 5.2059C17.9674 5.37577 18.2793 5.57893 18.6072 5.90715C18.9353 6.23527 19.1384 6.54774 19.3088 6.98527C19.4371 7.31527 19.59 7.8114 19.6316 8.72546C19.6765 9.71377 19.6863 10.0106 19.6863 12.5126C19.6863 15.0146 19.6765 15.3115 19.6316 16.2997C19.5898 17.2138 19.4371 17.7099 19.3088 18.04C19.1389 18.4775 18.9353 18.7891 18.6072 19.117C18.2791 19.4451 17.9676 19.6482 17.5298 19.8181C17.1997 19.9471 16.7032 20.0994 15.7892 20.1412C14.8009 20.1861 14.5041 20.1959 12.0008 20.1959C9.49753 20.1959 9.20081 20.1861 8.21259 20.1412C7.29853 20.099 6.80241 19.9463 6.47166 19.818C6.03422 19.648 5.72166 19.4449 5.39353 19.1168C5.06541 18.7887 4.86234 18.477 4.692 18.0392C4.56366 17.7091 4.41075 17.213 4.36913 16.299C4.32422 15.3106 4.31522 15.0138 4.31522 12.5102C4.31522 10.0067 4.32422 9.71143 4.36913 8.72312C4.41094 7.80905 4.56366 7.31293 4.692 6.98246C4.86197 6.54493 5.06541 6.23246 5.39363 5.90434C5.72175 5.57621 6.03422 5.37305 6.47175 5.2028C6.80222 5.0739 7.29853 4.92155 8.21259 4.87955C9.07744 4.84046 9.41259 4.82874 11.1598 4.82677V4.82912ZM17.0052 6.38574C16.3841 6.38574 15.8802 6.88918 15.8802 7.51037C15.8802 8.13146 16.3841 8.63537 17.0052 8.63537C17.6263 8.63537 18.1302 8.13146 18.1302 7.51037C18.1302 6.88927 17.6263 6.38537 17.0052 6.38537V6.38574ZM12.0008 7.70021C9.34209 7.70021 7.18641 9.8559 7.18641 12.5147C7.18641 15.1736 9.34209 17.3282 12.0008 17.3282C14.6597 17.3282 16.8146 15.1736 16.8146 12.5147C16.8146 9.85599 14.6595 7.70021 12.0007 7.70021H12.0008ZM12.0008 9.38968C13.7267 9.38968 15.1259 10.7887 15.1259 12.5147C15.1259 14.2406 13.7267 15.6398 12.0008 15.6398C10.2749 15.6398 8.87588 14.2406 8.87588 12.5147C8.87588 10.7887 10.2749 9.38968 12.0008 9.38968Z" fill="white"/>
<defs>
<radialGradient id="paint0_radial_1_16033" cx="0" cy="0" r="1" gradientUnits="userSpaceOnUse" gradientTransform="translate(6.375 26.3631) rotate(-90) scale(23.7858 22.1227)">
<stop stop-color="#FFDD55"/>
<stop offset="0.1" stop-color="#FFDD55"/>
<stop offset="0.5" stop-color="#FF543E"/>
<stop offset="1" stop-color="#C837AB"/>
</radialGradient>
<radialGradient id="paint1_radial_1_16033" cx="0" cy="0" r="1" gradientUnits="userSpaceOnUse" gradientTransform="translate(-4.02009 2.24349) rotate(78.681) scale(10.6324 43.827)">
<stop stop-color="#3771C8"/>
<stop offset="0.128" stop-color="#3771C8"/>
<stop offset="1" stop-color="#6600FF" stop-opacity="0"/>
</radialGradient>
</defs>
</svg>
