<svg width="16" height="16" viewBox="0 0 16 16" fill="none" xmlns="http://www.w3.org/2000/svg">
<path d="M12 7.2001H11.2V4.8001C11.2 3.0401 9.75995 1.6001 7.99995 1.6001C6.23995 1.6001 4.79995 3.0401 4.79995 4.8001V7.2001H3.99995C3.59995 7.2001 3.19995 7.6001 3.19995 8.0001V13.6001C3.19995 14.0001 3.59995 14.4001 3.99995 14.4001H12C12.4 14.4001 12.8 14.0001 12.8 13.6001V8.0001C12.8 7.6001 12.4 7.2001 12 7.2001ZM8.79995 12.8001H7.19995L7.51995 11.0401C7.11995 10.8801 6.79995 10.4001 6.79995 10.0001C6.79995 9.3601 7.35995 8.8001 7.99995 8.8001C8.63995 8.8001 9.19995 9.3601 9.19995 10.0001C9.19995 10.4801 8.95995 10.8801 8.47995 11.0401L8.79995 12.8001ZM9.59995 7.2001H6.39995V4.8001C6.39995 3.9201 7.11995 3.2001 7.99995 3.2001C8.87995 3.2001 9.59995 3.9201 9.59995 4.8001V7.2001Z" fill="#364254"/>
</svg>
