<svg width="262" height="73" viewBox="0 0 262 73" fill="none" xmlns="http://www.w3.org/2000/svg">
<path fill-rule="evenodd" clip-rule="evenodd" d="M32.4742 19.5122C37.6454 19.5122 41.8376 15.32 41.8376 10.1487C41.8376 4.97748 37.6454 0.785339 32.4742 0.785339C27.3029 0.785339 23.1107 4.97748 23.1107 10.1487C23.1107 15.32 27.3029 19.5122 32.4742 19.5122ZM27.8242 21.6577C20.7017 19.6135 13.9635 17.6795 8.39488 22.652C7.79207 23.1902 7.03169 23.8084 6.22941 24.4607L6.22927 24.4608L6.22923 24.4608C2.89046 27.1753 -1.17386 30.4795 2.37238 31.069C3.90832 31.3242 4.93706 30.7576 6.07132 30.1328C6.76093 29.753 7.48955 29.3516 8.39488 29.1005C12.3848 27.9936 16.3819 28.2634 20.2848 29.0191C20.2798 29.083 20.2772 29.1477 20.2772 29.2131V39.4195V44.9664V46.5011C20.2772 48.2393 21.6864 49.6485 23.4246 49.6485H39.2704C40.2476 49.6485 41.1305 50.2317 41.514 51.1305L48.0255 66.3926C48.6117 67.7666 50.2842 68.2956 51.554 67.5087L55.8454 64.849C56.8505 64.2261 57.2641 62.972 56.8266 61.8734L48.498 40.9564C48.1285 40.0285 47.2306 39.4195 46.2318 39.4195H43.8825H36.5176H34.2807C32.756 39.4195 31.6051 38.0364 31.8821 36.5371L32.703 32.0946C38.0622 33.2131 42.9583 33.2174 47.0491 29.1005C47.3954 28.752 47.7937 28.3605 48.2208 27.9408C51.5455 24.6732 56.6164 19.6895 52.4812 19.9029C50.989 19.9799 50.1189 20.6318 49.1708 21.3422C48.5588 21.8008 47.9144 22.2837 47.0491 22.652C40.7018 25.3538 34.1132 23.4628 27.8242 21.6577ZM9.72649 41.652C11.7788 39.4855 14.3675 37.9002 17.2301 37.0569L18.2302 40.4515C15.9662 41.1185 13.9188 42.3723 12.2956 44.0857C10.6724 45.7992 9.53119 47.9113 8.98759 50.2081C8.44399 52.5048 8.51737 54.9045 9.20028 57.1637C9.88319 59.423 11.1514 61.4615 12.8762 63.0726C14.601 64.6836 16.7212 65.81 19.0217 66.3374C21.3222 66.8648 23.7213 66.7745 25.9757 66.0757C28.2301 65.3769 30.2596 64.0944 31.8585 62.3583C33.4574 60.6222 34.5687 58.4941 35.0799 56.1899L38.5348 56.9564C37.8884 59.8698 36.4832 62.5605 34.4616 64.7556C32.44 66.9508 29.8739 68.5723 27.0235 69.4559C24.173 70.3395 21.1397 70.4536 18.2309 69.7867C15.3221 69.1199 12.6414 67.6958 10.4606 65.6587C8.27971 63.6217 6.67626 61.0443 5.81279 58.1877C4.94933 55.3311 4.85655 52.297 5.54387 49.393C6.23119 46.489 7.67417 43.8184 9.72649 41.652Z" fill="#1D9F00"/>
<path d="M8.39488 22.652L8.22837 22.4655H8.22837L8.39488 22.652ZM27.8242 21.6577L27.8931 21.4174L27.8242 21.6577ZM6.22941 24.4607L6.0717 24.2667L6.07049 24.2677L6.22941 24.4607ZM6.22927 24.4608L6.37827 24.6619L6.38819 24.6538L6.22927 24.4608ZM6.22923 24.4608L6.08027 24.2597L6.07152 24.2668L6.22923 24.4608ZM2.37238 31.069L2.41337 30.8223H2.41337L2.37238 31.069ZM6.07132 30.1328L5.9507 29.9138H5.9507L6.07132 30.1328ZM8.39488 29.1005L8.46171 29.3414L8.39488 29.1005ZM20.2848 29.0191L20.534 29.0385L20.5513 28.8161L20.3323 28.7736L20.2848 29.0191ZM41.514 51.1305L41.284 51.2286L41.514 51.1305ZM48.0255 66.3926L47.7955 66.4907L48.0255 66.3926ZM51.554 67.5087L51.6857 67.7212L51.554 67.5087ZM55.8454 64.849L55.7137 64.6365L55.8454 64.849ZM56.8266 61.8734L56.5944 61.9659L56.8266 61.8734ZM48.498 40.9564L48.7303 40.8639L48.498 40.9564ZM31.8821 36.5371L31.6363 36.4917L31.8821 36.5371ZM32.703 32.0946L32.7541 31.8499L32.5037 31.7976L32.4572 32.0492L32.703 32.0946ZM47.0491 29.1005L46.8718 28.9242L47.0491 29.1005ZM48.2208 27.9408L48.396 28.1191L48.2208 27.9408ZM52.4812 19.9029L52.4683 19.6532L52.4812 19.9029ZM49.1708 21.3422L49.0209 21.1421L49.1708 21.3422ZM47.0491 22.652L47.147 22.882L47.0491 22.652ZM17.2301 37.0569L17.4699 36.9862L17.3993 36.7464L17.1594 36.8171L17.2301 37.0569ZM9.72649 41.652L9.90798 41.8239V41.8239L9.72649 41.652ZM18.2302 40.4515L18.3008 40.6913L18.5406 40.6207L18.47 40.3809L18.2302 40.4515ZM12.2956 44.0857L12.1141 43.9138L12.2956 44.0857ZM9.20028 57.1637L8.96097 57.2361L9.20028 57.1637ZM12.8762 63.0726L12.7055 63.2553H12.7055L12.8762 63.0726ZM25.9757 66.0757L26.0497 66.3145H26.0497L25.9757 66.0757ZM35.0799 56.1899L35.1341 55.9459L34.89 55.8917L34.8359 56.1358L35.0799 56.1899ZM38.5348 56.9564L38.7789 57.0106L38.833 56.7665L38.5889 56.7124L38.5348 56.9564ZM34.4616 64.7556L34.2777 64.5863V64.5863L34.4616 64.7556ZM18.2309 69.7867L18.2868 69.5431L18.2309 69.7867ZM10.4606 65.6587L10.2899 65.8414L10.4606 65.6587ZM5.81279 58.1877L6.0521 58.1153L5.81279 58.1877ZM5.54387 49.393L5.30059 49.3354L5.54387 49.393ZM41.5876 10.1487C41.5876 15.1819 37.5074 19.2622 32.4742 19.2622V19.7622C37.7835 19.7622 42.0876 15.4581 42.0876 10.1487H41.5876ZM32.4742 1.03534C37.5074 1.03534 41.5876 5.11555 41.5876 10.1487H42.0876C42.0876 4.83941 37.7835 0.535339 32.4742 0.535339V1.03534ZM23.3607 10.1487C23.3607 5.11555 27.441 1.03534 32.4742 1.03534V0.535339C27.1648 0.535339 22.8607 4.83941 22.8607 10.1487H23.3607ZM32.4742 19.2622C27.441 19.2622 23.3607 15.1819 23.3607 10.1487H22.8607C22.8607 15.4581 27.1648 19.7622 32.4742 19.7622V19.2622ZM8.56139 22.8384C11.2878 20.4039 14.297 19.6578 17.5179 19.7734C20.7524 19.8896 24.1866 20.8738 27.7552 21.898L27.8931 21.4174C24.3393 20.3974 20.8432 19.3925 17.5358 19.2737C14.2148 19.1545 11.0706 19.9276 8.22837 22.4655L8.56139 22.8384ZM6.38712 24.6547C7.18796 24.0036 7.95334 23.3814 8.56139 22.8384L8.22837 22.4655C7.63079 22.9991 6.87542 23.6133 6.07171 24.2667L6.38712 24.6547ZM6.38819 24.6538L6.38834 24.6537L6.07049 24.2677L6.07034 24.2678L6.38819 24.6538ZM6.37804 24.6617L6.37807 24.6617L6.08046 24.2599L6.08042 24.2599L6.37804 24.6617ZM2.41337 30.8223C1.54585 30.6782 1.29586 30.3928 1.25664 30.1323C1.23388 29.9811 1.2684 29.7854 1.38127 29.5389C1.4933 29.2942 1.67367 29.0189 1.91423 28.7178C2.88357 27.5048 4.70844 26.0194 6.38694 24.6548L6.07152 24.2668C4.41124 25.6166 2.53457 27.1406 1.52362 28.4057C1.26911 28.7242 1.06198 29.0352 0.92666 29.3307C0.792173 29.6244 0.71948 29.9228 0.762212 30.2067C0.853974 30.8163 1.42578 31.1651 2.33139 31.3156L2.41337 30.8223ZM5.9507 29.9138C4.81453 30.5397 3.85544 31.062 2.41337 30.8223L2.33139 31.3156C3.9612 31.5865 5.0596 30.9755 6.19194 30.3518L5.9507 29.9138ZM8.32805 28.8596C7.39091 29.1195 6.63862 29.5349 5.9507 29.9138L6.19194 30.3518C6.88325 29.971 7.58819 29.5837 8.46171 29.3414L8.32805 28.8596ZM20.3323 28.7736C16.4106 28.0143 12.3703 27.7381 8.32805 28.8596L8.46171 29.3414C12.3992 28.249 16.3531 28.5124 20.2372 29.2645L20.3323 28.7736ZM20.5272 29.2131C20.5272 29.1542 20.5295 29.0959 20.534 29.0385L20.0355 28.9997C20.03 29.07 20.0272 29.1412 20.0272 29.2131H20.5272ZM20.5272 39.4195V29.2131H20.0272V39.4195H20.5272ZM20.5272 44.9664V39.4195H20.0272V44.9664H20.5272ZM20.5272 46.5011V44.9664H20.0272V46.5011H20.5272ZM23.4246 49.3985C21.8244 49.3985 20.5272 48.1013 20.5272 46.5011H20.0272C20.0272 48.3774 21.5483 49.8985 23.4246 49.8985V49.3985ZM39.2704 49.3985H23.4246V49.8985H39.2704V49.3985ZM41.7439 51.0324C41.3212 50.0414 40.3478 49.3985 39.2704 49.3985V49.8985C40.1475 49.8985 40.9399 50.4219 41.284 51.2286L41.7439 51.0324ZM48.2554 66.2945L41.7439 51.0324L41.284 51.2286L47.7955 66.4907L48.2554 66.2945ZM51.4223 67.2962C50.2826 68.0025 48.7815 67.5277 48.2554 66.2945L47.7955 66.4907C48.4418 68.0055 50.2857 68.5888 51.6857 67.7212L51.4223 67.2962ZM55.7137 64.6365L51.4223 67.2962L51.6857 67.7212L55.9771 65.0615L55.7137 64.6365ZM56.5944 61.9659C56.987 62.9519 56.6158 64.0774 55.7137 64.6365L55.9771 65.0615C57.0852 64.3748 57.5412 62.9921 57.0589 61.7809L56.5944 61.9659ZM48.2658 41.0489L56.5944 61.9659L57.0589 61.7809L48.7303 40.8639L48.2658 41.0489ZM46.2318 39.6695C47.1283 39.6695 47.9341 40.216 48.2658 41.0489L48.7303 40.8639C48.3229 39.8409 47.333 39.1695 46.2318 39.1695V39.6695ZM43.8825 39.6695H46.2318V39.1695H43.8825V39.6695ZM36.5176 39.6695H43.8825V39.1695H36.5176V39.6695ZM34.2807 39.6695H36.5176V39.1695H34.2807V39.6695ZM31.6363 36.4917C31.3308 38.1446 32.5998 39.6695 34.2807 39.6695V39.1695C32.9123 39.1695 31.8793 37.9281 32.1279 36.5825L31.6363 36.4917ZM32.4572 32.0492L31.6363 36.4917L32.1279 36.5825L32.9489 32.1401L32.4572 32.0492ZM46.8718 28.9242C42.8725 32.949 38.0877 32.9631 32.7541 31.8499L32.652 32.3394C38.0367 33.4632 43.0441 33.4858 47.2265 29.2767L46.8718 28.9242ZM48.0456 27.7625C47.6187 28.1819 47.2193 28.5745 46.8718 28.9242L47.2265 29.2767C47.5715 28.9295 47.9686 28.5391 48.396 28.1191L48.0456 27.7625ZM52.4941 20.1525C52.9946 20.1267 53.3176 20.1827 53.5122 20.2776C53.6883 20.3636 53.7618 20.4806 53.7791 20.6368C53.7989 20.8151 53.7459 21.0642 53.5994 21.3876C53.4551 21.706 53.2319 22.0709 52.9453 22.4708C51.7943 24.0769 49.714 26.1227 48.0456 27.7625L48.396 28.1191C50.0523 26.4913 52.1698 24.4114 53.3517 22.7621C53.6483 22.3482 53.8918 21.9536 54.0548 21.594C54.2155 21.2393 54.3105 20.8917 54.2761 20.5817C54.2392 20.2496 54.0564 19.9868 53.7314 19.8283C53.4247 19.6787 53.0016 19.6257 52.4683 19.6532L52.4941 20.1525ZM49.3207 21.5423C50.2677 20.8327 51.0842 20.2253 52.4941 20.1525L52.4683 19.6532C50.8938 19.7344 49.9701 20.4309 49.0209 21.1421L49.3207 21.5423ZM47.147 22.882C48.0434 22.5004 48.7097 22.0001 49.3207 21.5423L49.0209 21.1421C48.4079 21.6014 47.7853 22.0669 46.9512 22.4219L47.147 22.882ZM27.7552 21.898C34.0267 23.698 40.7046 25.6243 47.147 22.882L46.9512 22.4219C40.6989 25.0833 34.1997 23.2275 27.8931 21.4174L27.7552 21.898ZM17.1594 36.8171C14.2546 37.6729 11.6276 39.2816 9.545 41.48L9.90798 41.8239C11.93 39.6894 14.4804 38.1276 17.3007 37.2967L17.1594 36.8171ZM18.47 40.3809L17.4699 36.9862L16.9903 37.1275L17.9903 40.5222L18.47 40.3809ZM12.4771 44.2576C14.07 42.5762 16.0791 41.3458 18.3008 40.6913L18.1595 40.2117C15.8532 40.8911 13.7676 42.1683 12.1141 43.9138L12.4771 44.2576ZM9.23087 50.2657C9.76431 48.0118 10.8842 45.9391 12.4771 44.2576L12.1141 43.9138C10.4606 45.6592 9.29806 47.8108 8.74431 50.1505L9.23087 50.2657ZM9.43958 57.0914C8.76943 54.8743 8.69742 52.5195 9.23087 50.2657L8.74431 50.1505C8.19056 52.4902 8.26531 54.9346 8.96097 57.2361L9.43958 57.0914ZM13.0468 62.8899C11.3542 61.3089 10.1097 59.3084 9.43958 57.0914L8.96097 57.2361C9.65664 59.5375 10.9485 61.6141 12.7055 63.2553L13.0468 62.8899ZM19.0776 66.0937C16.82 65.5761 14.7394 64.4708 13.0468 62.8899L12.7055 63.2553C14.4626 64.8964 16.6223 66.0438 18.9658 66.5811L19.0776 66.0937ZM25.9017 65.8369C23.6894 66.5227 21.3351 66.6113 19.0776 66.0937L18.9658 66.5811C21.3093 67.1183 23.7532 67.0264 26.0497 66.3145L25.9017 65.8369ZM31.6746 62.1889C30.1056 63.8926 28.1139 65.1512 25.9017 65.8369L26.0497 66.3145C28.3462 65.6026 30.4136 64.2962 32.0424 62.5277L31.6746 62.1889ZM34.8359 56.1358C34.3342 58.3969 33.2436 60.4852 31.6746 62.1889L32.0424 62.5277C33.6711 60.7591 34.8033 58.5913 35.324 56.2441L34.8359 56.1358ZM38.5889 56.7124L35.1341 55.9459L35.0258 56.434L38.4806 57.2005L38.5889 56.7124ZM34.6455 64.925C36.697 62.6974 38.1229 59.967 38.7789 57.0106L38.2907 56.9023C37.6539 59.7726 36.2694 62.4236 34.2777 64.5863L34.6455 64.925ZM27.0975 69.6947C29.99 68.7981 32.594 67.1526 34.6455 64.925L34.2777 64.5863C32.286 66.749 29.7578 68.3466 26.9494 69.2171L27.0975 69.6947ZM18.175 70.0304C21.1268 70.7071 24.2049 70.5913 27.0975 69.6947L26.9494 69.2171C24.1411 70.0876 21.1526 70.2001 18.2868 69.5431L18.175 70.0304ZM10.2899 65.8414C12.503 67.9085 15.2233 69.3537 18.175 70.0304L18.2868 69.5431C15.421 68.8861 12.7799 67.483 10.6312 65.476L10.2899 65.8414ZM5.57349 58.26C6.44971 61.1588 8.07685 63.7743 10.2899 65.8414L10.6312 65.476C8.48258 63.4691 6.90281 60.9297 6.0521 58.1153L5.57349 58.26ZM5.30059 49.3354C4.60312 52.2823 4.69727 55.3612 5.57349 58.26L6.0521 58.1153C5.20139 55.301 5.10998 52.3117 5.78715 49.4506L5.30059 49.3354ZM9.545 41.48C7.46236 43.6785 5.99807 46.3885 5.30059 49.3354L5.78715 49.4506C6.46432 46.5895 7.88598 43.9583 9.90798 41.8239L9.545 41.48Z" fill="white" fill-opacity="0.37"/>
<g filter="url(#filter0_d_1_16206)">
<path d="M81.679 5.90909V35H75.5284V5.90909H81.679ZM102.521 14.2756C102.407 13.1297 101.919 12.2396 101.058 11.6051C100.196 10.9706 99.0263 10.6534 97.549 10.6534C96.5452 10.6534 95.6977 10.7955 95.0064 11.0795C94.3151 11.3542 93.7848 11.7377 93.4155 12.2301C93.0556 12.7225 92.8757 13.2812 92.8757 13.9062C92.8568 14.4271 92.9657 14.8816 93.2024 15.2699C93.4486 15.6581 93.7848 15.9943 94.2109 16.2784C94.6371 16.553 95.1295 16.7945 95.6882 17.0028C96.2469 17.2017 96.8435 17.3722 97.478 17.5142L100.092 18.1392C101.361 18.4233 102.525 18.8021 103.586 19.2756C104.647 19.7491 105.565 20.3314 106.342 21.0227C107.118 21.714 107.719 22.5284 108.146 23.4659C108.581 24.4034 108.804 25.4782 108.813 26.6903C108.804 28.4706 108.349 30.0142 107.45 31.321C106.559 32.6184 105.272 33.6269 103.586 34.3466C101.91 35.0568 99.888 35.4119 97.5206 35.4119C95.1721 35.4119 93.1267 35.0521 91.3842 34.3324C89.6513 33.6127 88.2971 32.5473 87.3217 31.1364C86.3558 29.7159 85.8492 27.9593 85.8018 25.8665H91.7536C91.8198 26.8419 92.0992 27.6562 92.5916 28.3097C93.0935 28.9536 93.7611 29.4413 94.5945 29.7727C95.4373 30.0947 96.389 30.2557 97.4496 30.2557C98.4912 30.2557 99.3956 30.1042 100.163 29.8011C100.939 29.4981 101.54 29.0767 101.967 28.5369C102.393 27.9972 102.606 27.3769 102.606 26.6761C102.606 26.0227 102.412 25.4735 102.023 25.0284C101.645 24.5833 101.086 24.2045 100.347 23.892C99.6181 23.5795 98.7232 23.2955 97.6626 23.0398L94.495 22.2443C92.0424 21.6477 90.1058 20.715 88.6854 19.446C87.2649 18.1771 86.5594 16.4678 86.5689 14.3182C86.5594 12.5568 87.0282 11.018 87.9751 9.7017C88.9316 8.38542 90.2431 7.35795 91.9098 6.61932C93.5765 5.88068 95.4704 5.51136 97.5916 5.51136C99.7507 5.51136 101.635 5.88068 103.245 6.61932C104.864 7.35795 106.124 8.38542 107.023 9.7017C107.923 11.018 108.387 12.5426 108.415 14.2756H102.521ZM112.95 35V5.90909H124.428C126.634 5.90909 128.514 6.33049 130.067 7.1733C131.62 8.00663 132.804 9.16667 133.618 10.6534C134.442 12.1307 134.854 13.8352 134.854 15.767C134.854 17.6989 134.437 19.4034 133.604 20.8807C132.77 22.358 131.563 23.5085 129.982 24.3324C128.41 25.1562 126.506 25.5682 124.271 25.5682H116.956V20.6392H123.277C124.461 20.6392 125.436 20.4356 126.203 20.0284C126.98 19.6117 127.557 19.0388 127.936 18.3097C128.324 17.571 128.518 16.7235 128.518 15.767C128.518 14.8011 128.324 13.9583 127.936 13.2386C127.557 12.5095 126.98 11.946 126.203 11.5483C125.427 11.1411 124.442 10.9375 123.249 10.9375H119.101V35H112.95ZM144.999 5.90909V35H138.849V5.90909H144.999ZM174.392 5.90909V35H169.08L156.423 16.6903H156.21V35H150.06V5.90909H155.457L168.014 24.2045H168.27V5.90909H174.392Z" fill="white"/>
<path d="M73.264 50.008C73.264 49.32 73.768 48.976 74.776 48.976C75.208 48.976 76.032 48.992 77.248 49.024C78.592 49.088 79.608 49.12 80.296 49.12C80.856 49.12 81.536 49.088 82.336 49.024C82.88 48.992 83.224 48.976 83.368 48.976C84.248 49.008 84.992 49.168 85.6 49.456C85.776 49.536 85.92 49.632 86.032 49.744C86.144 49.856 86.2 50.04 86.2 50.296C86.2 50.648 86.088 50.952 85.864 51.208C85.64 51.448 85.368 51.568 85.048 51.568C84.696 51.568 84.184 51.52 83.512 51.424C82.92 51.312 82.4 51.256 81.952 51.256C81.52 51.256 81.192 51.264 80.968 51.28C80.92 51.808 80.896 53.072 80.896 55.072C80.896 57.456 80.968 59.872 81.112 62.32L81.16 63.016C81.16 63.672 80.784 64 80.032 64C79.44 64 79.04 63.864 78.832 63.592C78.624 63.304 78.52 62.872 78.52 62.296C78.52 61.16 78.488 59.744 78.424 58.048C78.36 56.64 78.328 55.64 78.328 55.048C78.328 54.648 78.376 53.424 78.472 51.376L75.664 51.4C74.768 51.4 74.144 51.32 73.792 51.16C73.44 50.984 73.264 50.6 73.264 50.008ZM94.8619 56.296C94.9899 56.52 95.0939 56.848 95.1739 57.28C95.2539 57.696 95.2939 58.072 95.2939 58.408C95.2939 59.032 95.1579 59.92 94.8859 61.072C93.7819 63.088 92.1499 64.096 89.9899 64.096C89.1899 64.096 88.3739 63.832 87.5419 63.304C86.7099 62.776 86.1339 62.168 85.8139 61.48C85.3819 60.104 85.1659 59.232 85.1659 58.864C85.1659 58.224 85.3019 57.544 85.5739 56.824C85.8619 56.104 86.2219 55.48 86.6539 54.952C86.9259 54.584 87.4139 54.272 88.1179 54.016C88.8219 53.744 89.4619 53.608 90.0379 53.608C91.1579 53.608 92.1099 53.824 92.8939 54.256C93.6779 54.672 94.3339 55.352 94.8619 56.296ZM92.7739 60.16C92.8539 59.952 92.8939 59.416 92.8939 58.552C92.8939 58.088 92.8059 57.632 92.6299 57.184C92.4699 56.736 92.2299 56.352 91.9099 56.032C91.8779 56 91.7899 55.952 91.6459 55.888C91.5019 55.808 91.3019 55.736 91.0459 55.672C90.8059 55.592 90.5259 55.552 90.2059 55.552C89.3099 55.552 88.6539 55.912 88.2379 56.632C87.8219 57.352 87.6139 58.168 87.6139 59.08C87.6139 59.24 87.6539 59.544 87.7339 59.992C87.8299 60.44 87.9099 60.72 87.9739 60.832C88.0219 60.944 88.1419 61.104 88.3339 61.312C88.5419 61.504 88.7899 61.68 89.0779 61.84C89.3819 61.984 89.6939 62.056 90.0139 62.056C90.7339 62.056 91.3099 61.888 91.7419 61.552C92.1739 61.2 92.5179 60.736 92.7739 60.16ZM98.6712 53.584C99.7272 53.584 100.255 54.28 100.255 55.672C100.255 55.848 100.239 56.24 100.207 56.848C100.175 57.552 100.159 58.104 100.159 58.504C100.159 59.624 100.311 60.528 100.615 61.216C100.727 61.44 100.927 61.616 101.215 61.744C101.519 61.872 101.775 61.936 101.983 61.936C102.303 61.936 102.567 61.896 102.775 61.816C102.983 61.736 103.175 61.616 103.351 61.456C103.543 61.296 103.727 61.12 103.903 60.928C104.207 60.592 104.399 60.208 104.479 59.776C104.575 59.328 104.631 58.736 104.647 58C104.647 57.536 104.671 57.088 104.719 56.656C104.815 55.952 104.863 55.296 104.863 54.688C104.863 54.352 104.951 54.072 105.127 53.848C105.319 53.608 105.591 53.488 105.943 53.488C106.119 53.488 106.327 53.552 106.567 53.68C106.823 53.792 106.991 53.92 107.071 54.064C107.183 54.256 107.239 54.52 107.239 54.856C107.239 55.064 107.215 55.256 107.167 55.432C107.087 55.672 107.047 55.976 107.047 56.344C107.047 56.536 107.063 56.856 107.095 57.304C107.143 57.64 107.167 57.984 107.167 58.336C107.167 59.408 107.247 60.2 107.407 60.712C107.583 61.256 107.823 61.736 108.127 62.152C108.447 62.488 108.663 62.736 108.775 62.896C108.887 63.04 108.943 63.168 108.943 63.28C108.943 63.472 108.847 63.656 108.655 63.832C108.463 64.008 108.263 64.096 108.055 64.096C107.463 64.096 106.943 63.896 106.495 63.496C106.063 63.08 105.743 62.552 105.535 61.912C105.359 62.12 105.127 62.376 104.839 62.68C104.551 62.984 104.279 63.232 104.023 63.424C103.399 63.872 102.599 64.096 101.623 64.096C101.223 64.096 100.783 63.976 100.303 63.736C99.8392 63.496 99.4152 63.184 99.0312 62.8C98.6472 62.4 98.3832 61.976 98.2392 61.528C98.2232 61.496 98.1752 61.368 98.0952 61.144C98.0312 60.92 97.9992 60.584 97.9992 60.136L97.9752 56.296C97.9752 56.072 97.9192 55.72 97.8072 55.24C97.7112 54.92 97.6632 54.68 97.6632 54.52C97.6632 54.248 97.7512 54.024 97.9272 53.848C98.1192 53.672 98.3672 53.584 98.6712 53.584ZM119.261 55.984C119.261 56.688 118.901 57.04 118.181 57.04C117.941 57.04 117.741 56.984 117.581 56.872C117.421 56.76 117.245 56.592 117.053 56.368C116.573 55.84 116.157 55.576 115.805 55.576C115.341 55.576 114.885 55.712 114.437 55.984C114.005 56.256 113.653 56.64 113.381 57.136C113.109 57.632 112.973 58.184 112.973 58.792C112.973 59.464 113.101 60.024 113.357 60.472C113.629 60.92 114.045 61.304 114.605 61.624C114.813 61.736 115.053 61.824 115.325 61.888C115.613 61.952 115.861 61.984 116.069 61.984C116.533 61.984 117.117 61.8 117.821 61.432C118.077 61.304 118.293 61.208 118.469 61.144C118.645 61.08 118.829 61.048 119.021 61.048C119.197 61.048 119.397 61.128 119.621 61.288C119.845 61.448 119.957 61.648 119.957 61.888C119.957 62.368 119.733 62.776 119.285 63.112C118.837 63.432 118.285 63.68 117.629 63.856C116.989 64.016 116.373 64.096 115.781 64.096C114.837 64.096 113.957 63.88 113.141 63.448C112.341 63.016 111.701 62.424 111.221 61.672C110.741 60.904 110.501 60.04 110.501 59.08C110.501 58.056 110.733 57.12 111.197 56.272C111.661 55.424 112.285 54.76 113.069 54.28C113.853 53.8 114.709 53.56 115.637 53.56C116.165 53.56 116.709 53.656 117.269 53.848C117.829 54.04 118.301 54.32 118.685 54.688C119.069 55.056 119.261 55.488 119.261 55.984ZM131.783 64.072C130.583 64.072 129.775 63.608 129.359 62.68C129.151 62.216 129.015 61.616 128.951 60.88C128.887 60.128 128.855 59.248 128.855 58.24V57.496C128.855 56.344 128.471 55.768 127.703 55.768C127.255 55.768 126.807 56 126.359 56.464C125.911 56.912 125.535 57.512 125.231 58.264C124.943 59 124.799 59.768 124.799 60.568C124.799 61.096 124.823 61.576 124.871 62.008C124.903 62.552 124.919 62.968 124.919 63.256C124.919 63.8 124.543 64.072 123.791 64.072C123.423 64.072 123.095 63.992 122.807 63.832C122.535 63.672 122.399 63.464 122.399 63.208C122.463 62.392 122.495 61.384 122.495 60.184L122.471 57.016C122.471 56.504 122.431 54.608 122.351 51.328L122.279 49.12C122.279 48.768 122.439 48.464 122.759 48.208C123.079 47.936 123.439 47.8 123.839 47.8C124.191 47.8 124.447 47.88 124.607 48.04C124.767 48.2 124.847 48.448 124.847 48.784C124.847 49.2 124.839 49.688 124.823 50.248C124.807 50.792 124.791 51.208 124.775 51.496C124.727 52.312 124.703 53.128 124.703 53.944C124.703 54.744 124.687 55.376 124.655 55.84C125.135 55.136 125.679 54.616 126.287 54.28C126.911 53.928 127.639 53.752 128.471 53.752C129.079 53.752 129.639 54.024 130.151 54.568C130.679 55.096 130.999 55.704 131.111 56.392C131.143 56.744 131.159 57.264 131.159 57.952L131.135 59.704C131.135 59.976 131.151 60.4 131.183 60.976C131.199 61.248 131.287 61.536 131.447 61.84C131.623 62.144 131.823 62.368 132.047 62.512C132.255 62.64 132.391 62.768 132.455 62.896C132.519 63.024 132.551 63.168 132.551 63.328C132.551 63.488 132.479 63.656 132.335 63.832C132.191 63.992 132.007 64.072 131.783 64.072ZM139.687 55.696C139.463 55.664 139.279 55.568 139.135 55.408C139.007 55.248 138.943 55.056 138.943 54.832C138.943 54.72 138.967 54.6 139.015 54.472C139.079 54.344 139.167 54.232 139.279 54.136C139.487 53.96 139.767 53.792 140.119 53.632C140.487 53.488 140.751 53.312 140.911 53.104C141.071 52.896 141.151 52.504 141.151 51.928C141.151 51.688 141.135 51.48 141.103 51.304C141.087 51.128 141.079 50.992 141.079 50.896C141.079 50.544 141.207 50.28 141.463 50.104C141.719 49.928 142.015 49.84 142.351 49.84C142.767 49.84 143.047 49.944 143.191 50.152C143.351 50.36 143.431 50.744 143.431 51.304C143.431 51.848 143.407 52.32 143.359 52.72C143.311 53.104 143.207 53.448 143.047 53.752C143.271 53.752 143.639 53.736 144.151 53.704C144.855 53.672 145.343 53.656 145.615 53.656C145.887 53.656 146.127 53.728 146.335 53.872C146.543 54 146.647 54.184 146.647 54.424C146.647 54.76 146.575 55.008 146.431 55.168C146.287 55.328 146.079 55.432 145.807 55.48C145.151 55.656 144.223 55.76 143.023 55.792C142.991 56.416 142.975 57.096 142.975 57.832C142.975 59.064 143.047 60.008 143.191 60.664C143.287 61.176 143.447 61.552 143.671 61.792C143.911 62.016 144.263 62.128 144.727 62.128C144.967 62.128 145.159 62.096 145.303 62.032C145.463 61.968 145.551 61.928 145.567 61.912C145.759 61.8 145.935 61.744 146.095 61.744C146.319 61.744 146.479 61.816 146.575 61.96C146.687 62.104 146.743 62.296 146.743 62.536C146.743 62.984 146.503 63.36 146.023 63.664C145.543 63.952 144.927 64.096 144.175 64.096C143.327 64.096 142.607 63.848 142.015 63.352C141.439 62.84 141.095 62.168 140.983 61.336C140.823 60.584 140.743 59.528 140.743 58.168C140.743 57.576 140.775 56.784 140.839 55.792L139.687 55.696ZM151.567 48.784C151.567 49.2 151.559 49.688 151.543 50.248C151.527 50.792 151.511 51.208 151.495 51.496C151.447 52.312 151.423 53.128 151.423 53.944C151.423 54.552 151.447 55.184 151.495 55.84C151.991 55.12 152.527 54.592 153.103 54.256C153.679 53.92 154.375 53.752 155.191 53.752C155.783 53.752 156.335 54.016 156.847 54.544C157.359 55.072 157.687 55.688 157.831 56.392C157.879 57.016 157.903 57.776 157.903 58.672C157.903 59.248 157.935 60 157.999 60.928C158.031 61.28 158.119 61.608 158.263 61.912C158.423 62.216 158.647 62.368 158.935 62.368C159.079 62.368 159.191 62.36 159.271 62.344C159.367 62.328 159.455 62.32 159.535 62.32C159.759 62.32 159.911 62.376 159.991 62.488C160.087 62.6 160.135 62.76 160.135 62.968C160.135 63.352 159.943 63.64 159.559 63.832C159.175 64.024 158.823 64.12 158.503 64.12C157.351 64.12 156.559 63.64 156.127 62.68C155.887 62.136 155.735 61.432 155.671 60.568C155.607 59.688 155.575 58.664 155.575 57.496C155.575 56.344 155.183 55.768 154.399 55.768C153.967 55.768 153.527 56 153.079 56.464C152.647 56.912 152.287 57.512 151.999 58.264C151.711 59 151.567 59.768 151.567 60.568L151.591 63.064C151.591 63.416 151.455 63.68 151.183 63.856C150.911 64.016 150.655 64.096 150.415 64.096C150.063 64.096 149.743 63.992 149.455 63.784C149.167 63.56 149.023 63.312 149.023 63.04C149.135 61.84 149.191 59.832 149.191 57.016C149.191 56.504 149.151 54.608 149.071 51.328L148.999 49.12C148.999 48.768 149.159 48.464 149.479 48.208C149.799 47.936 150.159 47.8 150.559 47.8C150.911 47.8 151.167 47.88 151.327 48.04C151.487 48.2 151.567 48.448 151.567 48.784ZM161.385 58.576C161.385 58 161.489 57.464 161.697 56.968C161.905 56.456 162.209 55.928 162.609 55.384C163.009 54.84 163.561 54.416 164.265 54.112C164.969 53.792 165.737 53.632 166.569 53.632C167.209 53.632 167.825 53.768 168.417 54.04C169.025 54.296 169.569 54.616 170.049 55C170.113 55.112 170.225 55.32 170.385 55.624C170.545 55.912 170.657 56.176 170.721 56.416C170.801 56.656 170.841 56.904 170.841 57.16C170.841 58.232 170.449 58.952 169.665 59.32C168.881 59.672 167.889 59.848 166.689 59.848C165.489 59.848 164.513 59.768 163.761 59.608C163.793 59.912 163.873 60.216 164.001 60.52C164.129 60.824 164.281 61.056 164.457 61.216C164.777 61.52 165.089 61.72 165.393 61.816C165.713 61.896 166.137 61.936 166.665 61.936C167.465 61.936 168.089 61.784 168.537 61.48C168.953 61.208 169.273 61.072 169.497 61.072C169.801 61.072 170.033 61.168 170.193 61.36C170.353 61.536 170.433 61.768 170.433 62.056C170.433 62.664 170.041 63.16 169.257 63.544C168.489 63.928 167.617 64.12 166.641 64.12C165.873 64.12 165.113 63.984 164.361 63.712C163.609 63.44 163.009 63.056 162.561 62.56C162.257 62.048 161.985 61.424 161.745 60.688C161.505 59.952 161.385 59.248 161.385 58.576ZM166.665 55.6C166.313 55.6 165.945 55.664 165.561 55.792C165.193 55.904 164.905 56.08 164.697 56.32C164.441 56.592 164.249 56.84 164.121 57.064C164.009 57.288 163.937 57.568 163.905 57.904C164.081 57.904 164.249 57.912 164.409 57.928C164.569 57.944 164.721 57.96 164.865 57.976C165.569 58.04 166.097 58.072 166.449 58.072C167.153 58.072 167.689 57.968 168.057 57.76C168.441 57.552 168.633 57.272 168.633 56.92C168.633 56.584 168.417 56.28 167.985 56.008C167.569 55.736 167.129 55.6 166.665 55.6ZM189.585 55.408C189.569 55.152 189.561 54.768 189.561 54.256V53.344C189.561 52.736 189.545 52.28 189.513 51.976C189.481 51.72 189.465 51.056 189.465 49.984C189.465 49.6 189.577 49.304 189.801 49.096C190.041 48.872 190.361 48.76 190.761 48.76C191.273 48.76 191.617 48.872 191.793 49.096C191.969 49.32 192.057 49.688 192.057 50.2V51.112L192.033 53.752C192.017 54.264 192.009 55.032 192.009 56.056L192.033 58.024C192.049 58.328 192.057 58.752 192.057 59.296C192.057 59.728 192.073 60.344 192.105 61.144C192.137 61.88 192.153 62.432 192.153 62.8C192.153 63.104 192.065 63.384 191.889 63.64C191.729 63.896 191.505 64.024 191.217 64.024C190.097 64.024 189.537 63.648 189.537 62.896C189.537 62.48 189.553 62.016 189.585 61.504C189.617 61.136 189.633 60.576 189.633 59.824C189.633 59.296 189.617 58.536 189.585 57.544C188.833 57.608 187.537 57.64 185.697 57.64C184.545 57.64 183.649 57.64 183.009 57.64C182.369 57.624 181.905 57.584 181.617 57.52L181.593 60.28C181.593 60.456 181.633 60.928 181.713 61.696C181.793 62.208 181.833 62.656 181.833 63.04C181.833 63.28 181.689 63.512 181.401 63.736C181.129 63.944 180.873 64.048 180.633 64.048C180.057 64.048 179.665 63.912 179.457 63.64C179.249 63.352 179.145 62.92 179.145 62.344L179.121 60.448C179.105 60.224 179.097 59.912 179.097 59.512C179.097 58.92 179.081 58.112 179.049 57.088C179.017 56.16 179.001 55.488 179.001 55.072C179.001 54.448 179.017 53.576 179.049 52.456C179.081 51.4 179.097 50.616 179.097 50.104C179.097 49.592 179.225 49.248 179.481 49.072C179.737 48.896 180.025 48.808 180.345 48.808C181.241 48.808 181.689 49.104 181.689 49.696C181.689 50.752 181.665 51.76 181.617 52.72C181.585 53.936 181.569 54.824 181.569 55.384C182.033 55.496 182.521 55.568 183.033 55.6C183.545 55.632 184.265 55.648 185.193 55.648C187.081 55.648 188.545 55.568 189.585 55.408ZM204.667 56.296C204.795 56.52 204.899 56.848 204.979 57.28C205.059 57.696 205.099 58.072 205.099 58.408C205.099 59.032 204.963 59.92 204.691 61.072C203.587 63.088 201.955 64.096 199.795 64.096C198.995 64.096 198.179 63.832 197.347 63.304C196.515 62.776 195.939 62.168 195.619 61.48C195.187 60.104 194.971 59.232 194.971 58.864C194.971 58.224 195.107 57.544 195.379 56.824C195.667 56.104 196.027 55.48 196.459 54.952C196.731 54.584 197.219 54.272 197.923 54.016C198.627 53.744 199.267 53.608 199.843 53.608C200.963 53.608 201.915 53.824 202.699 54.256C203.483 54.672 204.139 55.352 204.667 56.296ZM202.579 60.16C202.659 59.952 202.699 59.416 202.699 58.552C202.699 58.088 202.611 57.632 202.435 57.184C202.275 56.736 202.035 56.352 201.715 56.032C201.683 56 201.595 55.952 201.451 55.888C201.307 55.808 201.107 55.736 200.851 55.672C200.611 55.592 200.331 55.552 200.011 55.552C199.115 55.552 198.459 55.912 198.043 56.632C197.627 57.352 197.419 58.168 197.419 59.08C197.419 59.24 197.459 59.544 197.539 59.992C197.635 60.44 197.715 60.72 197.779 60.832C197.827 60.944 197.947 61.104 198.139 61.312C198.347 61.504 198.595 61.68 198.883 61.84C199.187 61.984 199.499 62.056 199.819 62.056C200.539 62.056 201.115 61.888 201.547 61.552C201.979 61.2 202.323 60.736 202.579 60.16ZM207.54 55.576C207.124 55.288 206.916 54.984 206.916 54.664C206.916 54.44 207.012 54.232 207.204 54.04C207.396 53.848 207.684 53.752 208.068 53.752C208.516 53.752 208.916 53.872 209.268 54.112C209.636 54.336 209.892 54.664 210.036 55.096C210.404 54.664 210.82 54.32 211.284 54.064C211.764 53.808 212.252 53.68 212.748 53.68C213.34 53.68 213.876 53.84 214.356 54.16C214.836 54.48 215.076 54.912 215.076 55.456C215.076 55.76 214.94 56.072 214.668 56.392C214.412 56.712 214.148 56.872 213.876 56.872C213.732 56.872 213.604 56.84 213.492 56.776C213.396 56.696 213.276 56.584 213.132 56.44C212.972 56.28 212.836 56.168 212.724 56.104C212.612 56.024 212.484 55.984 212.34 55.984C212.084 55.984 211.844 56.024 211.62 56.104C211.396 56.184 211.244 56.28 211.164 56.392C210.908 56.792 210.716 57.152 210.588 57.472C210.476 57.792 210.42 58.136 210.42 58.504C210.42 58.776 210.412 58.992 210.396 59.152L210.372 60.52C210.372 60.728 210.38 60.96 210.396 61.216C210.412 61.472 210.428 61.664 210.444 61.792C210.492 62.224 210.516 62.64 210.516 63.04C210.516 63.312 210.412 63.552 210.204 63.76C209.996 63.968 209.74 64.072 209.436 64.072C208.956 64.072 208.604 63.984 208.38 63.808C208.156 63.616 208.044 63.272 208.044 62.776L208.02 61.24C208.004 60.936 207.996 60.504 207.996 59.944L208.02 58.36C208.052 57.592 208.068 56.968 208.068 56.488C208.068 56.312 208.028 56.152 207.948 56.008C207.884 55.864 207.748 55.72 207.54 55.576ZM217.715 48.592C218.275 48.64 218.763 48.792 219.179 49.048C219.595 49.288 219.803 49.656 219.803 50.152C219.803 50.52 219.627 50.816 219.275 51.04C218.939 51.248 218.531 51.352 218.051 51.352C217.587 51.352 217.267 51.232 217.091 50.992C216.915 50.752 216.827 50.504 216.827 50.248C216.827 49.768 216.875 49.368 216.971 49.048C217.083 48.728 217.331 48.576 217.715 48.592ZM219.635 59.224V59.92C219.635 60.544 219.651 61.136 219.683 61.696C219.731 62.24 219.787 62.792 219.851 63.352C219.851 63.544 219.739 63.72 219.515 63.88C219.291 64.024 219.083 64.096 218.891 64.096C218.587 64.096 218.275 64.04 217.955 63.928C217.651 63.8 217.467 63.648 217.403 63.472C217.307 62.96 217.259 62.504 217.259 62.104C217.259 60.792 217.219 59.32 217.139 57.688C217.075 56.248 217.043 55.24 217.043 54.664C217.043 54.376 217.187 54.128 217.475 53.92C217.763 53.712 218.067 53.608 218.387 53.608C218.851 53.608 219.171 53.712 219.347 53.92C219.539 54.128 219.635 54.456 219.635 54.904V59.224ZM230.935 55.792C230.599 56.368 230.143 56.96 229.567 57.568C228.991 58.176 228.255 58.896 227.359 59.728C226.511 60.528 226.039 60.984 225.943 61.096L225.127 61.84C225.447 61.904 226.047 61.936 226.927 61.936C227.279 61.936 227.791 61.872 228.463 61.744C229.103 61.616 229.575 61.552 229.879 61.552C230.135 61.552 230.423 61.592 230.743 61.672C231.079 61.752 231.391 61.872 231.679 62.032C231.823 62.096 231.943 62.224 232.039 62.416C232.135 62.592 232.183 62.76 232.183 62.92C232.183 63.128 232.111 63.36 231.967 63.616C231.823 63.872 231.655 64 231.463 64C231.287 64 231.055 63.968 230.767 63.904C230.335 63.824 230.031 63.784 229.855 63.784C229.295 63.784 228.551 63.824 227.623 63.904C226.343 64 225.399 64.048 224.791 64.048C224.023 64.048 223.415 63.952 222.967 63.76C222.535 63.568 222.319 63.208 222.319 62.68C222.319 62.28 222.519 61.824 222.919 61.312C223.319 60.784 223.807 60.232 224.383 59.656L224.719 59.296C224.975 59.04 225.407 58.656 226.015 58.144C226.623 57.616 227.087 57.2 227.407 56.896C227.727 56.576 227.991 56.24 228.199 55.888L224.359 55.912C223.735 55.912 223.271 55.84 222.967 55.696C222.679 55.552 222.535 55.28 222.535 54.88C222.535 54.656 222.615 54.448 222.775 54.256C222.935 54.048 223.143 53.92 223.399 53.872C223.975 53.792 225.151 53.752 226.927 53.752C228.703 53.752 229.927 53.84 230.599 54.016C230.775 54.08 230.911 54.2 231.007 54.376C231.119 54.536 231.175 54.704 231.175 54.88C231.175 55.168 231.095 55.472 230.935 55.792ZM243.22 56.296C243.348 56.52 243.452 56.848 243.532 57.28C243.612 57.696 243.652 58.072 243.652 58.408C243.652 58.856 243.58 59.416 243.436 60.088C243.292 60.744 243.172 61.184 243.076 61.408C242.212 63.2 240.548 64.096 238.084 64.096C237.3 64.096 236.532 63.84 235.78 63.328C235.028 62.8 234.492 62.184 234.172 61.48L234.004 61C233.988 60.936 233.9 60.696 233.74 60.28C233.596 59.848 233.524 59.52 233.524 59.296C233.524 58.64 233.684 57.88 234.004 57.016C234.324 56.152 234.692 55.464 235.108 54.952C235.38 54.584 235.9 54.272 236.668 54.016C237.436 53.744 238.116 53.608 238.708 53.608C239.812 53.608 240.7 53.816 241.372 54.232C242.06 54.648 242.676 55.336 243.22 56.296ZM241.012 60.16C241.076 60.048 241.132 59.848 241.18 59.56C241.228 59.272 241.252 58.936 241.252 58.552C241.252 58.088 241.164 57.632 240.988 57.184C240.828 56.736 240.588 56.352 240.268 56.032C240.252 56 240.196 55.952 240.1 55.888C240.004 55.808 239.852 55.736 239.644 55.672C239.436 55.592 239.172 55.552 238.852 55.552C238.228 55.552 237.7 55.736 237.268 56.104C236.836 56.472 236.508 56.928 236.284 57.472C236.076 58.016 235.972 58.552 235.972 59.08C235.972 59.224 236.02 59.52 236.116 59.968C236.212 60.416 236.284 60.704 236.332 60.832C236.46 61.056 236.708 61.32 237.076 61.624C237.444 61.912 237.86 62.056 238.324 62.056C239.044 62.056 239.604 61.888 240.004 61.552C240.42 61.216 240.756 60.752 241.012 60.16ZM256.896 62.152C256.976 62.184 257.104 62.224 257.28 62.272C257.456 62.32 257.584 62.368 257.664 62.416C257.744 62.464 257.784 62.536 257.784 62.632C257.8 63.016 257.656 63.336 257.352 63.592C257.064 63.832 256.72 63.952 256.32 63.952C255.696 63.952 255.208 63.784 254.856 63.448C254.504 63.112 254.248 62.6 254.088 61.912C254.024 61.64 253.992 61.264 253.992 60.784C253.992 60.512 254.008 60.072 254.04 59.464C254.072 58.824 254.088 58.312 254.088 57.928C254.088 57.368 253.928 56.88 253.608 56.464C253.304 56.032 252.872 55.816 252.312 55.816C251.976 55.816 251.624 55.92 251.256 56.128C250.888 56.32 250.632 56.56 250.488 56.848C250.248 57.312 250.08 57.816 249.984 58.36C249.808 59.32 249.72 60.32 249.72 61.36C249.72 61.856 249.728 62.24 249.744 62.512C249.744 62.576 249.744 62.704 249.744 62.896C249.76 63.072 249.744 63.24 249.696 63.4C249.664 63.544 249.6 63.68 249.504 63.808C249.424 63.888 249.296 63.952 249.12 64C248.96 64.064 248.808 64.096 248.664 64.096C248.44 64.096 248.16 64 247.824 63.808C247.488 63.616 247.296 63.4 247.248 63.16L247.224 62.752C247.224 62.608 247.24 62.44 247.272 62.248C247.464 61.128 247.56 60.152 247.56 59.32C247.56 58.952 247.552 58.664 247.536 58.456L247.512 57.328C247.512 56.944 247.416 56.576 247.224 56.224C247.032 55.856 246.808 55.672 246.552 55.672C246.472 55.672 246.36 55.704 246.216 55.768C246.072 55.816 245.952 55.84 245.856 55.84C245.696 55.84 245.52 55.76 245.328 55.6C245.152 55.44 245.064 55.272 245.064 55.096C245.064 54.76 245.176 54.488 245.4 54.28C245.64 54.088 245.872 53.936 246.096 53.824C246.336 53.712 246.608 53.656 246.912 53.656C247.168 53.656 247.376 53.68 247.536 53.728C247.696 53.776 247.912 53.88 248.184 54.04C248.328 54.12 248.496 54.296 248.688 54.568C248.88 54.84 249.04 55.224 249.168 55.72C249.584 54.952 250.096 54.416 250.704 54.112C251.328 53.792 252.12 53.632 253.08 53.632C253.448 53.632 253.84 53.752 254.256 53.992C254.688 54.232 255.056 54.512 255.36 54.832C255.648 55.184 255.888 55.624 256.08 56.152C256.272 56.664 256.368 57.128 256.368 57.544C256.368 57.784 256.352 58.176 256.32 58.72C256.272 59.152 256.248 59.608 256.248 60.088C256.248 61.208 256.464 61.896 256.896 62.152Z" fill="white"/>
</g>
<defs>
<filter id="filter0_d_1_16206" x="69" y="0" width="194" height="79" filterUnits="userSpaceOnUse" color-interpolation-filters="sRGB">
<feFlood flood-opacity="0" result="BackgroundImageFix"/>
<feColorMatrix in="SourceAlpha" type="matrix" values="0 0 0 0 0 0 0 0 0 0 0 0 0 0 0 0 0 0 127 0" result="hardAlpha"/>
<feOffset dy="4"/>
<feGaussianBlur stdDeviation="2"/>
<feComposite in2="hardAlpha" operator="out"/>
<feColorMatrix type="matrix" values="0 0 0 0 0 0 0 0 0 0 0 0 0 0 0 0 0 0 0.25 0"/>
<feBlend mode="normal" in2="BackgroundImageFix" result="effect1_dropShadow_1_16206"/>
<feBlend mode="normal" in="SourceGraphic" in2="effect1_dropShadow_1_16206" result="shape"/>
</filter>
</defs>
</svg>
