<svg width="28" height="29" viewBox="0 0 28 29" fill="none" xmlns="http://www.w3.org/2000/svg">
<path d="M11 14.8931C13.761 14.8931 16 11.6541 16 8.89307V7.89307C16 5.13207 13.761 2.89307 11 2.89307C8.239 2.89307 6 5.13207 6 7.89307L6 8.89307C6 11.6541 8.239 14.8931 11 14.8931Z" fill="#565D6D"/>
<path d="M18.257 18.2081C18.164 18.1651 18.073 18.1201 17.974 18.0871C16.329 17.5311 13.824 16.8931 11 16.8931C8.176 16.8931 5.671 17.5311 4.026 18.0861C2.81 18.4971 2 19.6421 2 20.9251L2 24.8931L16.349 24.8931C16.127 24.2671 16 23.5951 16 22.8931C16 20.9961 16.883 19.3071 18.257 18.2081Z" fill="#565D6D"/>
<path d="M23 18.8931H21V21.8931H18V23.8931H21V26.8931H23V23.8931H26V21.8931H23V18.8931Z" fill="#565D6D"/>
</svg>
