<svg width="24" height="24" viewBox="0 0 24 24" fill="none" xmlns="http://www.w3.org/2000/svg">
<rect width="24" height="24" rx="4" fill="#4461F2"/>
<path d="M6.4319 8.5439C4.21603 8.5439 2.3999 10.3545 2.3999 12.5644C2.3999 13.4207 2.67331 14.2165 3.13622 14.8707L5.94 19.7175C6.33264 20.2306 6.59376 20.1332 6.92035 19.6907L10.0127 14.4279C10.0751 14.3147 10.1241 14.1945 10.1669 14.0716C10.363 13.5933 10.4639 13.0813 10.4639 12.5644C10.4639 10.3545 8.64835 8.5439 6.4319 8.5439ZM6.4319 10.4278C7.62537 10.4278 8.57462 11.3746 8.57462 12.5646C8.57462 13.7546 7.62518 14.701 6.4319 14.701C5.23862 14.701 4.28918 13.7544 4.28918 12.5646C4.28918 11.3748 5.23881 10.4278 6.4319 10.4278ZM19.2479 2.3999C17.9554 2.3999 16.8959 3.45609 16.8959 4.74537C16.8959 5.24477 17.0553 5.70902 17.3254 6.09053L18.9611 8.91792C19.1901 9.21705 19.3424 9.16022 19.5328 8.90217L21.3367 5.83209C21.3731 5.76624 21.4018 5.69616 21.4265 5.62435C21.5413 5.34553 21.6002 5.04689 21.5999 4.74537C21.5999 3.4559 20.5408 2.3999 19.2479 2.3999ZM19.2479 3.49891C19.9441 3.49891 20.4978 4.0511 20.4978 4.74537C20.4978 5.43965 19.9441 5.99145 19.2479 5.99145C18.5517 5.99145 17.998 5.43945 17.998 4.74537C17.998 4.05129 18.5519 3.49891 19.2479 3.49891Z" fill="white"/>
<path fill-rule="evenodd" clip-rule="evenodd" d="M19.3361 9.58301C18.9046 9.59261 18.4721 9.61085 18.0387 9.64291L18.1055 10.7051C18.5218 10.6749 18.9388 10.6555 19.356 10.6469L19.3361 9.58301ZM17.0369 9.74045C16.3706 9.8232 15.6986 9.94109 15.0343 10.1306L15.2845 11.1599C15.8881 10.9879 16.5137 10.8767 17.149 10.7978L17.0369 9.74045ZM14.0395 10.4869C13.8405 10.5748 13.6478 10.6764 13.4628 10.7909L13.462 10.7918L13.4609 10.7922C13.1969 10.9585 12.9187 11.1695 12.6915 11.4761C12.527 11.6983 12.3924 11.9792 12.3609 12.3113L13.3391 12.4198C13.3464 12.3419 13.3864 12.2389 13.4582 12.1422C13.5739 11.9855 13.7479 11.8428 13.9543 11.7127C14.1015 11.6221 14.2555 11.5411 14.4136 11.4711L14.0395 10.4869ZM13.5359 12.8937L12.9018 13.7068C13.0521 13.8443 13.2097 13.9499 13.362 14.0382L13.3639 14.0391L13.3658 14.0403C13.8712 14.3277 14.3923 14.49 14.8753 14.6439L15.153 13.6229C14.6701 13.4689 14.2148 13.3203 13.8247 13.0987C13.713 13.0338 13.615 12.966 13.5359 12.8937ZM16.0963 13.9101L15.8251 14.9329L15.9534 14.9728L16.1108 15.0231C16.6319 15.1927 17.1311 15.3737 17.5773 15.6243L18.0301 14.6796C17.4906 14.3765 16.9305 14.1783 16.3908 14.0028L16.3892 14.0025L16.2276 13.9508L16.0963 13.9101ZM18.9507 15.3885L18.2551 16.1412C18.4195 16.3191 18.5425 16.5332 18.6024 16.7544L18.6028 16.7556L18.6032 16.7573C18.6746 17.0155 18.6748 17.3193 18.6189 17.6261L19.5835 17.8319C19.6623 17.3988 19.6749 16.9232 19.5455 16.4537C19.4328 16.0386 19.2178 15.678 18.9507 15.3885ZM18.2822 18.2674C18.1757 18.3795 18.0583 18.4806 17.9316 18.5692C17.586 18.8123 17.1847 18.9954 16.7588 19.1529L17.0764 20.1597C17.5422 19.9875 18.0205 19.7763 18.4675 19.4618L18.4686 19.4608C18.6521 19.3322 18.8225 19.1847 18.9759 19.0213L18.2822 18.2674ZM15.8553 19.4364C15.2384 19.6023 14.6079 19.7287 13.9697 19.8358L14.1202 20.8878C14.777 20.7774 15.4365 20.6455 16.092 20.4692L15.8553 19.4364ZM13.0095 19.981C12.367 20.0687 11.7211 20.1403 11.0733 20.2014L11.1582 21.2616C11.816 21.1998 12.4749 21.127 13.1329 21.037L13.0095 19.981ZM10.0997 20.2849C9.45056 20.3364 8.79987 20.3782 8.14861 20.4135L8.19776 21.4764C8.85536 21.4409 9.51353 21.3985 10.1715 21.3463L10.0997 20.2849ZM7.16998 20.4615C6.77965 20.4798 6.38835 20.4948 5.99609 20.5086L6.02835 21.5724C6.42306 21.5589 6.81769 21.5431 7.21222 21.5252L7.16998 20.4615Z" fill="white"/>
</svg>
