<svg width="28" height="29" viewBox="0 0 28 29" fill="none" xmlns="http://www.w3.org/2000/svg">
<path d="M22.872 16.3461C22.9538 15.866 22.9966 15.3801 23 14.8931C22.9966 14.4061 22.9538 13.9202 22.872 13.4401L24.972 11.4111C25.1321 11.2561 25.2359 11.0521 25.2669 10.8315C25.2979 10.6108 25.2543 10.3861 25.143 10.1931L23.643 7.59307C23.5302 7.40073 23.3569 7.25118 23.1501 7.16777C22.9433 7.08437 22.7147 7.07181 22.5 7.13207L19.7 7.93207C18.9419 7.31459 18.0884 6.82453 17.173 6.48107L16.47 3.65107C16.416 3.43463 16.2912 3.24246 16.1155 3.10512C15.9397 2.96777 15.7231 2.89313 15.5 2.89307L12.5 2.89307C12.2769 2.89313 12.0603 2.96777 11.8845 3.10512C11.7088 3.24246 11.584 3.43463 11.53 3.65107L10.823 6.48107C9.90898 6.82492 9.05688 7.31497 8.3 7.93207L5.5 7.13207C5.28532 7.07199 5.05679 7.08463 4.85004 7.16802C4.64329 7.2514 4.46994 7.40085 4.357 7.59307L2.857 10.1931C2.74548 10.3862 2.70174 10.6111 2.73272 10.832C2.7637 11.0529 2.86764 11.257 3.028 11.4121L5.128 13.4411C5.04629 13.9208 5.00349 14.4064 5 14.8931C5.00343 15.3801 5.04624 15.866 5.128 16.3461L3.028 18.3751C2.86788 18.53 2.76409 18.734 2.73311 18.9547C2.70213 19.1753 2.74573 19.4 2.857 19.5931L4.357 22.1931C4.44486 22.3452 4.57125 22.4716 4.72345 22.5593C4.87566 22.6471 5.0483 22.6932 5.224 22.6931C5.31695 22.6926 5.40943 22.6799 5.499 22.6551L8.299 21.8551C9.0571 22.4725 9.91057 22.9626 10.826 23.3061L11.533 26.1361C11.587 26.3518 11.7115 26.5434 11.8866 26.6805C12.0617 26.8176 12.2776 26.8924 12.5 26.8931H15.5C15.7231 26.893 15.9397 26.8184 16.1155 26.681C16.2912 26.5437 16.416 26.3515 16.47 26.1351L17.177 23.3051C18.091 22.9612 18.9431 22.4712 19.7 21.8541L22.5 22.6541C22.5896 22.6789 22.6821 22.6917 22.775 22.6921C22.9507 22.6922 23.1234 22.6461 23.2756 22.5583C23.4278 22.4706 23.5542 22.3442 23.642 22.1921L25.142 19.5921C25.2535 19.3989 25.2973 19.174 25.2663 18.9531C25.2353 18.7323 25.1314 18.5281 24.971 18.3731L22.872 16.3461ZM14 18.8931C13.2089 18.8931 12.4355 18.6585 11.7777 18.2189C11.1199 17.7794 10.6072 17.1547 10.3045 16.4238C10.0017 15.6929 9.92252 14.8886 10.0769 14.1127C10.2312 13.3368 10.6122 12.624 11.1716 12.0646C11.731 11.5052 12.4437 11.1243 13.2196 10.9699C13.9956 10.8156 14.7998 10.8948 15.5307 11.1975C16.2616 11.5003 16.8864 12.013 17.3259 12.6708C17.7654 13.3286 18 14.1019 18 14.8931C18 15.9539 17.5786 16.9713 16.8284 17.7215C16.0783 18.4716 15.0609 18.8931 14 18.8931Z" fill="#565D6D"/>
</svg>
