<svg width="16" height="16" viewBox="0 0 16 16" fill="none" xmlns="http://www.w3.org/2000/svg">
<path d="M9.59995 7.2001V4.8001C9.59995 3.9201 8.87995 3.2001 7.99995 3.2001C7.11995 3.2001 6.39995 3.9201 6.39995 4.8001H4.79995C4.79995 3.0321 6.23195 1.6001 7.99995 1.6001C9.76795 1.6001 11.2 3.0321 11.2 4.8001V7.2001H12C12.44 7.2001 12.8 7.5601 12.8 8.0001V13.6001C12.8 14.0401 12.44 14.4001 12 14.4001H3.99995C3.55995 14.4001 3.19995 14.0401 3.19995 13.6001V8.0001C3.19995 7.5601 3.55995 7.2001 3.99995 7.2001H9.59995ZM8.79995 12.8001L8.51195 11.0801C8.91995 10.8881 9.19995 10.4801 9.19995 10.0001C9.19995 9.3361 8.66395 8.8001 7.99995 8.8001C7.33595 8.8001 6.79995 9.3361 6.79995 10.0001C6.79995 10.4801 7.07995 10.8881 7.48795 11.0801L7.19995 12.8001H8.79995Z" fill="#037847"/>
</svg>
