<svg width="28" height="34" viewBox="0 0 28 34" fill="none" xmlns="http://www.w3.org/2000/svg">
<path fill-rule="evenodd" clip-rule="evenodd" d="M15.6726 9.24967C18.1621 9.24967 20.1802 7.23153 20.1802 4.74202C20.1802 2.25252 18.1621 0.234375 15.6726 0.234375C13.1831 0.234375 11.1649 2.25252 11.1649 4.74202C11.1649 7.23153 13.1831 9.24967 15.6726 9.24967ZM13.4338 10.2826C10.005 9.29847 6.76115 8.36743 4.08036 10.7612C3.79014 11.0204 3.42406 11.318 3.03781 11.632L3.03779 11.632C1.43047 12.9388 -0.526133 14.5295 1.18106 14.8133C1.92048 14.9362 2.41573 14.6634 2.96177 14.3626C3.29376 14.1797 3.64453 13.9865 4.08036 13.8656C6.00114 13.3327 7.92537 13.4626 9.80427 13.8264C9.80188 13.8572 9.80066 13.8883 9.80066 13.9198V18.8333V21.5036V22.2424C9.80066 23.0793 10.479 23.7576 11.3158 23.7576H18.9445C19.4149 23.7576 19.8399 24.0384 20.0245 24.4711L23.1592 31.8184C23.4415 32.4799 24.2466 32.7346 24.8579 32.3557L26.9238 31.0753C27.4077 30.7755 27.6068 30.1717 27.3962 29.6428L23.3867 19.5732C23.2089 19.1264 22.7766 18.8333 22.2958 18.8333H21.1645H17.6192H16.5421C15.8081 18.8333 15.254 18.1674 15.3874 17.4457L15.7826 15.307C18.3625 15.8455 20.7196 15.8475 22.6889 13.8656C22.8554 13.6981 23.0468 13.5099 23.2521 13.3081L23.2527 13.3076L23.253 13.3073L23.253 13.3073C24.8536 11.7343 27.2947 9.33505 25.304 9.43777C24.5856 9.47484 24.1667 9.7887 23.7103 10.1307C23.4157 10.3514 23.1055 10.5839 22.6889 10.7612C19.6332 12.0619 16.4614 11.1516 13.4338 10.2826ZM4.72172 19.908C5.70974 18.865 6.95596 18.1018 8.33404 17.6958L8.81548 19.33C7.72557 19.6511 6.73993 20.2547 5.95852 21.0796C5.17711 21.9045 4.6277 22.9213 4.36601 24.027C4.10431 25.1327 4.13964 26.2879 4.4684 27.3755C4.79716 28.4631 5.40767 29.4445 6.23802 30.2201C7.06837 30.9957 8.08904 31.5379 9.19653 31.7918C10.304 32.0457 11.459 32.0022 12.5443 31.6658C13.6295 31.3294 14.6066 30.712 15.3763 29.8762C16.146 29.0404 16.681 28.016 16.9271 26.9067L18.5903 27.2757C18.2792 28.6782 17.6027 29.9736 16.6295 31.0303C15.6562 32.0871 14.4209 32.8677 13.0487 33.2931C11.6764 33.7184 10.2161 33.7734 8.81584 33.4524C7.41553 33.1313 6.12501 32.4457 5.07512 31.4651C4.02523 30.4844 3.25331 29.2436 2.83763 27.8684C2.42195 26.4933 2.37728 25.0326 2.70817 23.6346C3.03905 22.2366 3.73371 20.9509 4.72172 19.908Z" fill="#1D9F00"/>
</svg>
