<svg width="28" height="29" viewBox="0 0 28 29" fill="none" xmlns="http://www.w3.org/2000/svg">
<path d="M13 8.89307C12.4067 8.89307 11.8266 8.71712 11.3333 8.38748C10.8399 8.05783 10.4554 7.5893 10.2284 7.04112C10.0013 6.49294 9.94189 5.88974 10.0576 5.3078C10.1734 4.72585 10.4591 4.1913 10.8787 3.77175C11.2982 3.35219 11.8328 3.06647 12.4147 2.95071C12.9967 2.83496 13.5999 2.89437 14.1481 3.12143C14.6962 3.34849 15.1648 3.73301 15.4944 4.22636C15.8241 4.7197 16 5.29972 16 5.89307C16 6.68872 15.6839 7.45178 15.1213 8.01439C14.5587 8.577 13.7957 8.89307 13 8.89307Z" fill="#565D6D"/>
<path d="M22 26.8931C23.1046 26.8931 24 25.9976 24 24.8931C24 23.7885 23.1046 22.8931 22 22.8931C20.8954 22.8931 20 23.7885 20 24.8931C20 25.9976 20.8954 26.8931 22 26.8931Z" fill="#565D6D"/>
<path d="M12 24.8931C11.118 24.8979 10.2595 24.6096 9.55917 24.0735C8.85888 23.5373 8.35658 22.7837 8.13119 21.931C7.9058 21.0783 7.9701 20.1749 8.31398 19.3627C8.65786 18.5505 9.26183 17.8756 10.031 17.4441L9.62099 15.3931L9.31199 15.5491C8.35947 16.029 7.5523 16.7544 6.97383 17.6505C6.39536 18.5466 6.06656 19.5808 6.02137 20.6464C5.97619 21.7121 6.21625 22.7704 6.71678 23.7123C7.21732 24.6541 7.96017 25.4453 8.86865 26.0041C9.77713 26.5629 10.8183 26.8691 11.8846 26.891C12.951 26.913 14.0039 26.6499 14.9346 26.129C15.8653 25.608 16.6401 24.8481 17.179 23.9277C17.7178 23.0072 18.0013 21.9596 18 20.8931H16C16 21.9539 15.5786 22.9713 14.8284 23.7215C14.0783 24.4716 13.0609 24.8931 12 24.8931Z" fill="#565D6D"/>
<path d="M21 16.8931H16.039L14.961 11.5001C14.8567 10.9802 14.5503 10.523 14.1091 10.229C13.6678 9.93497 13.1279 9.82818 12.608 9.93212L6.83296 10.9071C6.68697 10.9325 6.54844 10.9899 6.42738 11.0754C6.30632 11.1608 6.20575 11.2721 6.13296 11.4011L3.63696 15.8081L5.37796 16.7921L7.63596 12.7991L11.036 12.2261C11.036 12.2461 11.036 12.2651 11.042 12.2861L12.042 17.2861C12.1327 17.7388 12.3772 18.1462 12.7341 18.4391C13.091 18.732 13.5383 18.8924 14 18.8931L21 18.8931V20.8931L23 20.8931V18.8931C23 18.3627 22.7892 17.854 22.4142 17.4789C22.0391 17.1038 21.5304 16.8931 21 16.8931Z" fill="#565D6D"/>
</svg>
